<?xml version="1.0" encoding="UTF-8"?>
<svg width="173px" height="147px" viewBox="0 0 173 147" version="1.1" xmlns="http://www.w3.org/2000/svg" xmlns:xlink="http://www.w3.org/1999/xlink">
    <!-- Generator: Sketch 51.3 (57544) - http://www.bohemiancoding.com/sketch -->
    <title>Artboard</title>
    <desc>Created with Sketch.</desc>
    <defs>
        <polygon id="path-1" points="0 132.436869 156.197601 132.436869 78.0988005 0"></polygon>
        <rect id="path-3" x="0" y="0" width="68.2712259" height="34.8713603"></rect>
    </defs>
    <g id="Artboard" stroke="none" stroke-width="1" fill="none" fill-rule="evenodd">
        <g id="Group-3" transform="translate(8.000000, 10.000000)">
            <mask id="mask-2" fill="white">
                <use xlink:href="#path-1"></use>
            </mask>
            <use id="Path-6" stroke="#111D87" stroke-width="9" fill="#FFFFFF" fill-rule="nonzero" xlink:href="#path-1"></use>
            <path d="M20.1181098,90.4813553 L27.6814716,90.4813553 L27.6814716,100.732206 L36.818934,100.732206 L36.818934,90.4813553 L44.3822957,90.4813553 L44.3822957,119.27588 L36.818934,119.27588 L36.818934,108.295568 L27.6814716,108.295568 L27.6814716,119.27588 L20.1181098,119.27588 L20.1181098,90.4813553 Z M53.0590457,119.27588 L53.0590457,90.4813553 L70.9500435,90.4813553 L70.9500435,96.7393653 L60.6224075,96.7393653 L60.6224075,101.423275 L69.7598699,101.423275 L69.7598699,107.796463 L60.6224075,107.796463 L60.6224075,113.094655 L70.9500435,113.094655 L70.9500435,119.27588 L53.0590457,119.27588 Z M79.2428666,119.27588 L79.2428666,90.4813553 L86.8062283,90.4813553 L86.8062283,111.674125 L97.1722571,111.674125 L97.1722571,119.27588 L79.2428666,119.27588 Z M108.88203,90.4813553 L120.630196,101.154526 L132.33997,90.4813553 L135.75692,90.4813553 L135.75692,119.27588 L128.155165,119.27588 L128.155165,104.494691 L120.630196,111.366984 L113.066835,104.533083 L113.066835,119.27588 L105.46508,119.27588 L105.46508,90.4813553 L108.88203,90.4813553 Z" id="HELM" fill="#111D87" mask="url(#mask-2)"></path>
            <g id="top-arc" mask="url(#mask-2)">
                <g transform="translate(78.738604, 72.680452) scale(1, -1) translate(-78.738604, -72.680452) translate(44.460826, 55.152043)">
                    <mask id="mask-4" fill="white">
                        <use xlink:href="#path-3"></use>
                    </mask>
                    <g id="Rectangle-5" stroke="none" fill="none" fill-rule="nonzero"></g>
                    <g id="rungs-top" stroke="none" stroke-width="1" fill="none" fill-rule="evenodd" mask="url(#mask-4)">
                        <g transform="translate(8.533903, 11.174445)" fill="#111D87">
                            <path d="M44.3356843,20.8686348 C45.8471609,20.8686348 47.0724549,17.6382963 47.0724549,13.6534718 C47.0724549,9.66864738 45.8471609,6.43830891 44.3356843,6.43830891 C42.8242076,6.43830891 41.5989136,9.66864738 41.5989136,13.6534718 C41.5989136,17.6382963 42.8242076,20.8686348 44.3356843,20.8686348 Z" id="Oval-1" transform="translate(44.335684, 13.653472) rotate(35.000000) translate(-44.335684, -13.653472) "></path>
                            <path d="M6.56824952,20.8686348 C8.0797262,20.8686348 9.30502015,17.6382963 9.30502015,13.6534718 C9.30502015,9.66864738 8.0797262,6.43830891 6.56824952,6.43830891 C5.05677284,6.43830891 3.83147889,9.66864738 3.83147889,13.6534718 C3.83147889,17.6382963 5.05677284,20.8686348 6.56824952,20.8686348 Z" id="Oval-1-Copy" transform="translate(6.568250, 13.653472) scale(-1, 1) rotate(35.000000) translate(-6.568250, -13.653472) "></path>
                            <path d="M25.4370002,14.4529284 C26.9484769,14.4529284 28.1737708,11.2225899 28.1737708,7.23776544 C28.1737708,3.25294098 26.9484769,0.0226025111 25.4370002,0.0226025111 C23.9255235,0.0226025111 22.7002295,3.25294098 22.7002295,7.23776544 C22.7002295,11.2225899 23.9255235,14.4529284 25.4370002,14.4529284 Z" id="Oval-1-Copy-4" transform="translate(25.437000, 7.237765) scale(-1, 1) translate(-25.437000, -7.237765) "></path>
                        </g>
                    </g>
                    <path d="M54.7966419,37.2218281 C50.3883488,29.8904777 42.3999575,24.9917222 33.2769802,24.9917222 C24.4035974,24.9917222 16.6035678,29.6260954 12.1271257,36.6256083 M12.6061113,64.8013889 C17.1473777,71.3960552 24.7121805,75.7137009 33.2769802,75.7137009 C41.8573423,75.7137009 49.4340702,71.3803505 53.9725738,64.7654184" id="Oval-1" stroke="#111D87" stroke-width="5.160839" fill="none" mask="url(#mask-4)"></path>
                </g>
            </g>
            <ellipse id="Oval" fill="#111D87" fill-rule="nonzero" mask="url(#mask-2)" cx="77.7092803" cy="53.6048537" rx="6.42708333" ry="3.3567476"></ellipse>
        </g>
    </g>
</svg>