<?xml version="1.0" encoding="UTF-8"?>
<svg width="130px" height="150px" viewBox="0 0 130 150" version="1.1" xmlns="http://www.w3.org/2000/svg" xmlns:xlink="http://www.w3.org/1999/xlink">
    <!-- Generator: Sketch 51.3 (57544) - http://www.bohemiancoding.com/sketch -->
    <title>Logo</title>
    <desc>Created with Sketch.</desc>
    <defs>
        <rect id="path-1" x="0" y="0" width="134.135907" height="68.5135135"></rect>
        <rect id="path-3" x="0" y="0" width="134.135907" height="68.5135135"></rect>
    </defs>
    <g id="Page-1" stroke="none" stroke-width="1" fill="none" fill-rule="evenodd">
        <g id="Website" transform="translate(-280.000000, -268.000000)">
            <g id="Intro">
                <g id="Brand" transform="translate(275.000000, 246.000000)">
                    <g id="Helm-Badge">
                        <g id="Logo">
                            <g id="Betchna-Helm">
                                <path d="M5,81 L13.471,81 L13.471,92.481 L23.705,92.481 L23.705,81 L32.176,81 L32.176,113.25 L23.705,113.25 L23.705,100.952 L13.471,100.952 L13.471,113.25 L5,113.25 L5,81 Z M41.894,113.25 L41.894,81 L61.932,81 L61.932,88.009 L50.365,88.009 L50.365,93.255 L60.599,93.255 L60.599,100.393 L50.365,100.393 L50.365,106.327 L61.932,106.327 L61.932,113.25 L41.894,113.25 Z M71.22,113.25 L71.22,81 L79.691,81 L79.691,104.736 L91.301,104.736 L91.301,113.25 L71.22,113.25 Z M104.416,81 L117.574,92.954 L130.689,81 L134.516,81 L134.516,113.25 L126.002,113.25 L126.002,96.695 L117.574,104.392 L109.103,96.738 L109.103,113.25 L100.589,113.25 L100.589,81 L104.416,81 Z" id="HELM" fill="#111D87"></path>
                                <g id="top-arc" transform="translate(72.187645, 160.743243) scale(1, -1) translate(-72.187645, -160.743243) translate(5.119691, 126.486486)">
                                    <mask id="mask-2" fill="white">
                                        <use xlink:href="#path-1"></use>
                                    </mask>
                                    <g id="Rectangle-5" fill-rule="nonzero"></g>
                                    <g id="rungs-top" mask="url(#mask-2)" fill="#111D87">
                                        <g transform="translate(16.766988, 22.573184)">
                                            <path d="M87.1085462,41.4375182 C90.0782204,41.4375182 92.4856169,35.0907099 92.4856169,27.2615251 C92.4856169,19.4323403 90.0782204,13.0855321 87.1085462,13.0855321 C84.138872,13.0855321 81.7314754,19.4323403 81.7314754,27.2615251 C81.7314754,35.0907099 84.138872,41.4375182 87.1085462,41.4375182 Z" id="Oval-1" transform="translate(87.108546, 27.261525) rotate(35.000000) translate(-87.108546, -27.261525) "></path>
                                            <path d="M12.9049698,41.4375182 C15.874644,41.4375182 18.2820406,35.0907099 18.2820406,27.2615251 C18.2820406,19.4323403 15.874644,13.0855321 12.9049698,13.0855321 C9.93529563,13.0855321 7.52789905,19.4323403 7.52789905,27.2615251 C7.52789905,35.0907099 9.93529563,41.4375182 12.9049698,41.4375182 Z" id="Oval-1-Copy" transform="translate(12.904970, 27.261525) scale(-1, 1) rotate(35.000000) translate(-12.904970, -27.261525) "></path>
                                            <path d="M49.9773521,28.8322575 C52.9470263,28.8322575 55.3544229,22.4854493 55.3544229,14.6562645 C55.3544229,6.82707968 52.9470263,0.4802714 49.9773521,0.4802714 C47.007678,0.4802714 44.6002814,6.82707968 44.6002814,14.6562645 C44.6002814,22.4854493 47.007678,28.8322575 49.9773521,28.8322575 Z" id="Oval-1-Copy-4" transform="translate(49.977352, 14.656264) scale(-1, 1) translate(-49.977352, -14.656264) "></path>
                                        </g>
                                    </g>
                                    <path d="M107.661715,74.1856497 C99.0005203,59.7813772 83.3053266,50.1565462 65.3809547,50.1565462 C47.9469738,50.1565462 32.6218638,59.2619321 23.826773,73.0142266 M24.7678602,128.372598 C33.6903143,141.32947 48.5532625,149.812566 65.3809547,149.812566 C82.2392233,149.812566 97.1256012,141.298615 106.042627,128.301925" id="Oval-1" stroke="#111D87" stroke-width="7.16083916" mask="url(#mask-2)"></path>
                                </g>
                                <g id="top-arc" transform="translate(5.119691, 0.000000)">
                                    <mask id="mask-4" fill="white">
                                        <use xlink:href="#path-3"></use>
                                    </mask>
                                    <g id="Rectangle-5" fill-rule="nonzero"></g>
                                    <g id="rungs-top" mask="url(#mask-4)" fill="#111D87">
                                        <g transform="translate(16.766988, 21.519130)">
                                            <path d="M87.1085462,41.4375182 C90.0782204,41.4375182 92.4856169,35.0907099 92.4856169,27.2615251 C92.4856169,19.4323403 90.0782204,13.0855321 87.1085462,13.0855321 C84.138872,13.0855321 81.7314754,19.4323403 81.7314754,27.2615251 C81.7314754,35.0907099 84.138872,41.4375182 87.1085462,41.4375182 Z" id="Oval-1" transform="translate(87.108546, 27.261525) rotate(35.000000) translate(-87.108546, -27.261525) "></path>
                                            <path d="M12.9049698,41.4375182 C15.874644,41.4375182 18.2820406,35.0907099 18.2820406,27.2615251 C18.2820406,19.4323403 15.874644,13.0855321 12.9049698,13.0855321 C9.93529563,13.0855321 7.52789905,19.4323403 7.52789905,27.2615251 C7.52789905,35.0907099 9.93529563,41.4375182 12.9049698,41.4375182 Z" id="Oval-1-Copy" transform="translate(12.904970, 27.261525) scale(-1, 1) rotate(35.000000) translate(-12.904970, -27.261525) "></path>
                                            <path d="M49.9773521,28.8322575 C52.9470263,28.8322575 55.3544229,22.4854493 55.3544229,14.6562645 C55.3544229,6.82707968 52.9470263,0.4802714 49.9773521,0.4802714 C47.007678,0.4802714 44.6002814,6.82707968 44.6002814,14.6562645 C44.6002814,22.4854493 47.007678,28.8322575 49.9773521,28.8322575 Z" id="Oval-1-Copy-4" transform="translate(49.977352, 14.656264) scale(-1, 1) translate(-49.977352, -14.656264) "></path>
                                        </g>
                                    </g>
                                    <path d="M107.661715,73.1315956 C99.0005203,58.7273231 83.3053266,49.1024921 65.3809547,49.1024921 C47.9469738,49.1024921 32.6218638,58.207878 23.826773,71.9601726 M24.7678602,127.318544 C33.6903143,140.275416 48.5532625,148.758512 65.3809547,148.758512 C82.2392233,148.758512 97.1256012,140.244561 106.042627,127.247871" id="Oval-1" stroke="#111D87" stroke-width="7.16083916" mask="url(#mask-4)"></path>
                                </g>
                            </g>
                        </g>
                    </g>
                </g>
            </g>
        </g>
    </g>
</svg>