<svg width="915" height="222" viewBox="0 0 915 222" fill="none" xmlns="http://www.w3.org/2000/svg">
<path fill-rule="evenodd" clip-rule="evenodd" d="M836.699 45.1867C831.176 45.1867 826.699 49.6639 826.699 55.1867V166.228C826.699 171.751 831.176 176.228 836.699 176.228H904.813C910.336 176.228 914.813 171.751 914.813 166.228V55.1867C914.813 49.6639 910.336 45.1867 904.813 45.1867H836.699ZM857.407 134.927H870.755C888.143 134.927 888.499 86.0941 868.974 86.0941H857.407V134.927ZM842.765 72.5421H868.543C907.979 72.5421 909.641 148.873 868.543 148.873H842.765V72.5421Z" fill="#FF4856"/>
<path fill-rule="evenodd" clip-rule="evenodd" d="M744.844 40.668C739.321 40.668 734.844 45.1452 734.844 50.6681V170.747C734.844 176.27 739.321 180.747 744.844 180.747H812.958C818.48 180.747 822.958 176.27 822.958 170.747V50.668C822.958 45.1452 818.48 40.668 812.958 40.668H744.844ZM758.232 148.874V72.5403H799.57V85.6129H771.061L771.297 104.11H799.57V116.564H771.534V135.926H799.57V148.874H758.232Z" fill="#FF4856"/>
<path fill-rule="evenodd" clip-rule="evenodd" d="M652.988 31.6307C647.465 31.6307 642.988 36.1079 642.988 41.6307V179.784C642.988 185.307 647.465 189.784 652.988 189.784H721.102C726.625 189.784 731.102 185.307 731.102 179.784V41.6307C731.102 36.1079 726.625 31.6307 721.102 31.6307H652.988ZM694.64 149.608H680.208L680.294 86.3764L663.502 86.3054V71.8122H710.588V86.3764H694.697L694.64 149.608Z" fill="#FF4856"/>
<path fill-rule="evenodd" clip-rule="evenodd" d="M561.132 18.0747C555.609 18.0747 551.132 22.5518 551.132 28.0747V193.34C551.132 198.863 555.609 203.34 561.132 203.34H629.246C634.769 203.34 639.246 198.863 639.246 193.34V28.0747C639.246 22.5518 634.769 18.0747 629.246 18.0747H561.132ZM595.51 91.1415L587.285 122.339H603.735L595.51 91.1415ZM586.638 71.8124H603.86L626.075 149.605H610.751L607.424 136.657H583.667L579.511 149.605H564.304L586.638 71.8124Z" fill="#FF4856"/>
<path fill-rule="evenodd" clip-rule="evenodd" d="M469.277 0C463.754 0 459.277 4.47715 459.277 9.99999V211.415C459.277 216.938 463.754 221.415 469.277 221.415H537.391C542.914 221.415 547.391 216.938 547.391 211.415V10C547.391 4.47715 542.914 0 537.391 0H469.277ZM532.454 131.08C528.656 140.288 521.635 150.417 506.672 150.417C486.759 150.417 474.214 133.958 474.214 110.707C474.214 87.4573 486.759 70.998 506.672 70.998C521.404 70.998 528.426 80.5513 532.339 89.4139L519.563 95.0538C517.261 88.9536 512.772 84.6949 506.672 84.6949C496.313 84.6949 490.097 95.6293 490.097 110.707C490.097 125.786 496.313 136.72 506.672 136.72C513.002 136.72 517.491 131.886 519.678 125.555L532.454 131.08Z" fill="#FF4856"/>
<path fill-rule="evenodd" clip-rule="evenodd" d="M377.421 0C371.898 0 367.421 4.47715 367.421 9.99999V211.415C367.421 216.938 371.898 221.415 377.421 221.415H445.535C451.058 221.415 455.535 216.938 455.535 211.415V10C455.535 4.47715 451.058 0 445.535 0H377.421ZM418.189 149.604H404.767V73.1486H418.189V149.604Z" fill="#FF4856"/>
<path fill-rule="evenodd" clip-rule="evenodd" d="M285.566 18.0747C280.043 18.0747 275.566 22.5518 275.566 28.0747V193.34C275.566 198.863 280.043 203.34 285.566 203.34H353.68C359.203 203.34 363.68 198.863 363.68 193.34V28.0747C363.68 22.5518 359.203 18.0747 353.68 18.0747H285.566ZM300.439 149.065V72.61H313.815V136.981H338.806V149.065H300.439Z" fill="#FF4856"/>
<path fill-rule="evenodd" clip-rule="evenodd" d="M101.854 40.668C96.3316 40.668 91.8545 45.1452 91.8545 50.6681V170.747C91.8545 176.27 96.3317 180.747 101.855 180.747H169.969C175.491 180.747 179.969 176.27 179.969 170.747V50.668C179.969 45.1452 175.491 40.668 169.969 40.668H101.854ZM115.242 148.874V72.5403H156.58V85.6129H128.071L128.308 104.11H156.58V116.564H128.548V135.926H156.58V148.874H115.242Z" fill="#FF4856"/>
<path fill-rule="evenodd" clip-rule="evenodd" d="M10 45.1867C4.47715 45.1867 0 49.6639 0 55.1867V166.228C0 171.751 4.47716 176.228 10 176.228H78.1141C83.6369 176.228 88.1141 171.751 88.1141 166.228V55.1867C88.1141 49.6639 83.6369 45.1867 78.1141 45.1867H10ZM33.2123 107.844H45.3913C57.5703 107.844 56.9232 86.088 45.3913 86.088H33.2123V107.844ZM48.285 72.3496C74.3878 72.3496 73.9801 113.95 55.8484 119.141L69.9774 149.065H52.5129L41.2974 121.393H33.3206V149.065H18.1367V72.3496H48.285Z" fill="#FF4856"/>
<path fill-rule="evenodd" clip-rule="evenodd" d="M193.71 31.6307C188.187 31.6307 183.71 36.1079 183.71 41.6307V179.784C183.71 185.307 188.187 189.784 193.71 189.784H261.824C267.347 189.784 271.824 185.307 271.824 179.784V41.6307C271.824 36.1079 267.347 31.6307 261.824 31.6307H193.71ZM217.221 121.44V149.065H201.862V72.6098H230.059C245.763 72.6098 253.672 83.9578 253.672 97.0251C253.672 110.092 245.763 121.44 230.059 121.44H217.221ZM217.221 107.915H228.225C234.071 107.915 237.969 103.673 237.969 97.0251C237.969 90.3768 234.071 86.1356 228.225 86.1356H217.221V107.915Z" fill="#FF4856"/>
</svg>
